<svg xmlns="http://www.w3.org/2000/svg" width="24" height="25" viewBox="0 0 24 25" fill="none">
  <path d="M14.5 7L9.5 10.5M14.5 18L9.5 14.5M9.5 12.5C9.5 13.163 9.23661 13.7989 8.76777 14.2678C8.29893 14.7366 7.66304 15 7 15C6.33696 15 5.70107 14.7366 5.23223 14.2678C4.76339 13.7989 4.5 13.163 4.5 12.5C4.5 11.837 4.76339 11.2011 5.23223 10.7322C5.70107 10.2634 6.33696 10 7 10C7.66304 10 8.29893 10.2634 8.76777 10.7322C9.23661 11.2011 9.5 11.837 9.5 12.5ZM19.5 19C19.5 19.663 19.2366 20.2989 18.7678 20.7678C18.2989 21.2366 17.663 21.5 17 21.5C16.337 21.5 15.7011 21.2366 15.2322 20.7678C14.7634 20.2989 14.5 19.663 14.5 19C14.5 18.337 14.7634 17.7011 15.2322 17.2322C15.7011 16.7634 16.337 16.5 17 16.5C17.663 16.5 18.2989 16.7634 18.7678 17.2322C19.2366 17.7011 19.5 18.337 19.5 19ZM19.5 6C19.5 6.66304 19.2366 7.29893 18.7678 7.76777C18.2989 8.23661 17.663 8.5 17 8.5C16.337 8.5 15.7011 8.23661 15.2322 7.76777C14.7634 7.29893 14.5 6.66304 14.5 6C14.5 5.33696 14.7634 4.70107 15.2322 4.23223C15.7011 3.76339 16.337 3.5 17 3.5C17.663 3.5 18.2989 3.76339 18.7678 4.23223C19.2366 4.70107 19.5 5.33696 19.5 6Z" stroke="#9E9E9E" stroke-width="1.5" stroke-linecap="round" stroke-linejoin="round"/>
</svg>