<svg width="15" height="15" viewBox="0 0 15 15" fill="none" xmlns="http://www.w3.org/2000/svg">
<path d="M9.0625 4.0625L5.9375 6.25M9.0625 10.9375L5.9375 8.75M5.9375 7.5C5.9375 7.9144 5.77288 8.31183 5.47985 8.60485C5.18683 8.89788 4.7894 9.0625 4.375 9.0625C3.9606 9.0625 3.56317 8.89788 3.27015 8.60485C2.97712 8.31183 2.8125 7.9144 2.8125 7.5C2.8125 7.0856 2.97712 6.68817 3.27015 6.39515C3.56317 6.10212 3.9606 5.9375 4.375 5.9375C4.7894 5.9375 5.18683 6.10212 5.47985 6.39515C5.77288 6.68817 5.9375 7.0856 5.9375 7.5ZM12.1875 11.5625C12.1875 11.9769 12.0229 12.3743 11.7299 12.6674C11.4368 12.9604 11.0394 13.125 10.625 13.125C10.2106 13.125 9.81317 12.9604 9.52015 12.6674C9.22712 12.3743 9.0625 11.9769 9.0625 11.5625C9.0625 11.1481 9.22712 10.7507 9.52015 10.4576C9.81317 10.1646 10.2106 10 10.625 10C11.0394 10 11.4368 10.1646 11.7299 10.4576C12.0229 10.7507 12.1875 11.1481 12.1875 11.5625ZM12.1875 3.4375C12.1875 3.8519 12.0229 4.24933 11.7299 4.54235C11.4368 4.83538 11.0394 5 10.625 5C10.2106 5 9.81317 4.83538 9.52015 4.54235C9.22712 4.24933 9.0625 3.8519 9.0625 3.4375C9.0625 3.0231 9.22712 2.62567 9.52015 2.33265C9.81317 2.03962 10.2106 1.875 10.625 1.875C11.0394 1.875 11.4368 2.03962 11.7299 2.33265C12.0229 2.62567 12.1875 3.0231 12.1875 3.4375Z" stroke="#141919" stroke-width="1.5" stroke-linecap="round" stroke-linejoin="round"/>
</svg>
