<svg xmlns="http://www.w3.org/2000/svg" width="16" height="15" viewBox="0 0 16 15" fill="none">
  <path fill-rule="evenodd" clip-rule="evenodd" d="M8.91401 5.02499C9.05463 4.88454 9.24526 4.80565 9.44401 4.80565C9.64276 4.80565 9.83338 4.88454 9.97401 5.02499C10.2991 5.35 10.5569 5.73585 10.7328 6.16051C10.9087 6.58518 10.9993 7.04033 10.9993 7.49999C10.9993 7.95965 10.9087 8.4148 10.7328 8.83946C10.5569 9.26413 10.2991 9.64998 9.97401 9.97499L7.97401 11.975C7.36076 12.5874 6.54208 12.9506 5.67646 12.9941C4.81085 13.0376 3.95988 12.7584 3.2883 12.2105C2.61672 11.6627 2.1723 10.8851 2.04109 10.0284C1.90987 9.17168 2.10119 8.29675 2.57801 7.57299C2.68968 7.41182 2.86003 7.30079 3.05257 7.26368C3.24511 7.22658 3.44452 7.26635 3.60809 7.37448C3.77166 7.48261 3.88638 7.6505 3.92767 7.84219C3.96896 8.03387 3.93355 8.2341 3.82901 8.39999C3.55629 8.81372 3.44687 9.31396 3.52196 9.80377C3.59705 10.2936 3.8513 10.7381 4.23543 11.0511C4.61956 11.3641 5.10623 11.5234 5.60111 11.4981C6.09599 11.4728 6.56385 11.2646 6.91401 10.914L8.91401 8.91399C9.28895 8.53893 9.49958 8.03032 9.49958 7.49999C9.49958 6.96966 9.28895 6.46104 8.91401 6.08599C8.77356 5.94536 8.69467 5.75474 8.69467 5.55599C8.69467 5.35724 8.77356 5.16561 8.91401 5.02499Z" fill="#3C3C3C"/>
  <path fill-rule="evenodd" clip-rule="evenodd" d="M7.08598 8.97499C6.94536 9.11544 6.75474 9.19433 6.55598 9.19433C6.35723 9.19433 6.16661 9.11544 6.02598 8.97499C5.70094 8.64998 5.4431 8.26412 5.26719 7.83946C5.09127 7.4148 5.00073 6.95964 5.00073 6.49999C5.00073 6.04033 5.09127 5.58518 5.26719 5.16051C5.4431 4.73585 5.70094 4.35 6.02598 4.02499L8.02598 2.02499C8.63924 1.41253 9.45792 1.0494 10.3235 1.00588C11.1891 0.962368 12.0401 1.24157 12.7117 1.78944C13.3833 2.33731 13.8277 3.11487 13.9589 3.97158C14.0901 4.8283 13.8988 5.70323 13.422 6.42699C13.3103 6.58816 13.14 6.69919 12.9474 6.73629C12.7549 6.7734 12.5555 6.73362 12.3919 6.62549C12.2283 6.51736 12.1136 6.34947 12.0723 6.15779C12.031 5.96611 12.0664 5.76588 12.171 5.59999C12.4437 5.18626 12.5531 4.68601 12.478 4.19621C12.4029 3.7064 12.1487 3.26191 11.7646 2.94887C11.3804 2.63584 10.8938 2.47655 10.3989 2.50189C9.904 2.52722 9.43615 2.73537 9.08599 3.08599L7.08598 5.08599C6.71104 5.46104 6.50041 5.96966 6.50041 6.49999C6.50041 7.03032 6.71104 7.53893 7.08598 7.91399C7.22644 8.05461 7.30532 8.24524 7.30532 8.44399C7.30532 8.64274 7.22644 8.83336 7.08598 8.97399" fill="#3C3C3C"/>
</svg>