<svg xmlns="http://www.w3.org/2000/svg" width="20" height="21" viewBox="0 0 20 21" fill="none">
  <path d="M3 10.5H1L10 1.5L19 10.5H17M3 10.5V17.5C3 18.0304 3.21071 18.5391 3.58579 18.9142C3.96086 19.2893 4.46957 19.5 5 19.5H15C15.5304 19.5 16.0391 19.2893 16.4142 18.9142C16.7893 18.5391 17 18.0304 17 17.5V10.5" stroke="#3C3C3C" stroke-width="2" stroke-linecap="round" stroke-linejoin="round"/>
  <path d="M7 19.5V13.5C7 12.9696 7.21071 12.4609 7.58579 12.0858C7.96086 11.7107 8.46957 11.5 9 11.5H11C11.5304 11.5 12.0391 11.7107 12.4142 12.0858C12.7893 12.4609 13 12.9696 13 13.5V19.5" stroke="#3C3C3C" stroke-width="2" stroke-linecap="round" stroke-linejoin="round"/>
</svg>